<svg version="1" xmlns="http://www.w3.org/2000/svg" width="186.667" height="186.667" viewBox="0 0 140.000000 140.000000"><path d="M60.5 40.6c-2.5 2.3-2.9 2.4-4.4 1-2.3-2.1-3.8-2-5.1.4-1.4 2.7-2.8 2.5-5.2-.5-1.6-2.1-2.8-2.5-6.9-2.5-2.7 0-6.4.6-8.2 1.4-3.8 1.5-8.4 6.6-10.4 11.4-1.2 3-1.2 3.7.2 5.8 1.5 2.4 1.5 2.5-.7 2.3-4.8-.4-6.8.2-8.4 2.6-1.4 2.1-1.4 3-.4 5.6 1.7 4 5.7 5.9 12.4 5.9 8.5 0 15.3 1.8 17.5 4.7 1.9 2.3 3.9 10.8 2.9 11.9-.5.4-32.5-2-40.1-3.1L0 87v53h140V95h-13.7c-21.4.1-62.3-2.2-62.3-3.4 0-2.7 4.3-7.7 8.7-10.3 4.1-2.4 5.7-2.7 11.2-2.5 3.5.1 6.9-.2 7.6-.8.8-.7 2.7-.5 5.9.6 4.5 1.5 5.2 1.5 11.4-.2 8.2-2.2 9.3-2.3 11.4-.5 1.2.9 2.9 1.1 5.5.6 7.5-1.4 9.5-4.5 3-4.5-1.8 0-4-.7-5-1.4-1.2-.9-2.8-1.1-5.1-.6-2.5.6-3.8.3-5-.8-1.2-1.2-2-1.3-4-.4-3.2 1.4-5.6-.8-3.6-3.3 1.7-2-.6-4.8-3.3-4.1-1.7.4-1.8.3-.3-1.3 2.1-2.3 2-3.4-.2-5.4-2.5-2.3-6.5-2.1-8.7.3-1.7 1.9-1.8 1.9-3.8-.7-2.6-3.3-7.5-5.3-13-5.3-4.3 0-4.3 0-5.6-4.7-2.2-8.4-5.7-10.3-10.6-5.7zm2.6 34.2l3-.5-4.4 4.5c-5 5-5.7 4.9-11.1-1.5L47.8 74l3 .6c1.7.3 3.8.1 4.8-.4 1.3-.7 2.3-.7 3.1 0 .7.6 2.7.8 4.4.6z"/></svg>